<svg xmlns="http://www.w3.org/2000/svg" width="17" height="16" viewBox="0 0 17 16" fill="none">
  <path d="M13.2092 2H3.20922C2.24922 2 1.44922 2.8 1.44922 3.76V14.4C1.44922 14.56 1.52922 14.72 1.68922 14.8H1.84922H2.08922L4.80922 12.48H13.2092C14.1692 12.48 14.9692 11.68 14.9692 10.72V3.76C14.9692 2.8 14.1692 2 13.2092 2ZM14.1692 10.64C14.1692 11.2 13.6892 11.6 13.2092 11.6H4.64922C4.56922 11.6 4.48922 11.6 4.40922 11.68L2.24922 13.52V3.76C2.24922 3.2 2.64922 2.8 3.20922 2.8H13.2092C13.7692 2.8 14.1692 3.28 14.1692 3.76V10.64Z" fill="#A4A4A6"/>
  <path d="M8.64687 8H5.44687C5.20687 8 5.04688 8.16 5.04688 8.4C5.04688 8.64 5.20687 8.8 5.44687 8.8H8.64687C8.88687 8.8 9.04688 8.64 9.04688 8.4C9.04688 8.16 8.88687 8 8.64687 8Z" fill="#A4A4A6"/>
  <path d="M11.0469 5.59961H5.44687C5.20687 5.59961 5.04688 5.75961 5.04688 5.99961C5.04688 6.23961 5.20687 6.39961 5.44687 6.39961H11.0469C11.2869 6.39961 11.4469 6.23961 11.4469 5.99961C11.4469 5.75961 11.2869 5.59961 11.0469 5.59961Z" fill="#A4A4A6"/>
</svg>