<svg xmlns="http://www.w3.org/2000/svg" width="22" height="22" viewBox="0 0 22 22" fill="none">
  <path d="M1.96613 13.6054H19.8561C19.9671 13.1389 20.0432 12.6746 20.0801 12.1896H1.74219C1.7791 12.6725 1.85313 13.1389 1.96613 13.6054ZM3.15805 16.4372H18.6439C18.9234 15.9893 19.1845 15.5248 19.3898 15.0213H2.41218C2.63612 15.5061 2.87853 15.9891 3.15805 16.4372ZM6.01027 19.2502H15.8122C16.4451 18.8597 17.0226 18.3749 17.5445 17.8344H4.27593C4.79785 18.3934 5.37535 18.8597 6.01027 19.2502ZM15.8122 3.70898H6.01027C5.3774 4.09945 4.7999 4.58446 4.27798 5.12484H17.5465C17.0226 4.58426 16.4451 4.1015 15.8122 3.70898Z" fill="white"/>
  <path d="M2.40967 15.0211H19.3532C19.5398 14.5733 19.6875 14.0903 19.8003 13.6053H1.96465C2.07539 14.0882 2.2251 14.5546 2.40967 15.0211ZM4.26973 17.8527H17.5116C17.9218 17.4232 18.293 16.9403 18.6272 16.4368H3.1541C3.48838 16.9403 3.86162 17.4068 4.26973 17.8527ZM10.8917 20.668C12.6964 20.668 14.3698 20.146 15.7828 19.2521H6.00059C7.41357 20.1645 9.08701 20.668 10.8917 20.668ZM1.96465 9.35565H19.8188C19.708 8.87085 19.5583 8.38584 19.3717 7.9398H2.40967C2.2251 8.4043 2.07539 8.87085 1.96465 9.35565ZM1.72266 11.4805C1.72266 11.7229 1.74111 11.947 1.75957 12.1894H20.0607C20.0792 11.947 20.0977 11.7229 20.0977 11.4805C20.0977 11.2381 20.0792 11.0139 20.0607 10.7715H1.74111C1.72266 11.0139 1.72266 11.2381 1.72266 11.4805ZM4.26973 5.10623C3.85957 5.53566 3.48838 6.01862 3.1541 6.52209H18.6088C18.293 6.01862 17.9197 5.53361 17.4932 5.10623H4.26973ZM10.8917 2.29297C9.08701 2.29297 7.41357 2.81489 6.00059 3.70883H15.7828C14.3698 2.79644 12.6964 2.29297 10.8917 2.29297Z" fill="#BF0A30"/>
  <path d="M1.74219 10.771H20.0803C20.0434 10.286 19.9693 9.81966 19.8563 9.35516H1.96613C1.85313 9.82171 1.7791 10.286 1.74219 10.771ZM2.41218 7.9393H19.3898C19.1843 7.43583 18.9232 6.96928 18.6439 6.52344H3.15805C2.87853 6.96948 2.63612 7.45449 2.41218 7.9393Z" fill="white"/>
  <path d="M10.9102 2.29297C5.82217 2.29297 1.72266 6.41094 1.72266 11.4805C1.72266 11.7229 1.74111 11.9655 1.75957 12.2079H10.9102V2.29297Z" fill="#002868"/>
  <path d="M2.32153 8.31131C2.28257 8.34822 2.28257 8.38534 2.2434 8.42226L2.32153 8.31131ZM2.16937 8.60929C2.13245 8.70178 2.11379 8.81477 2.07688 8.90727L2.16937 8.60929ZM2.61541 11.665L2.35435 11.4595L2.07482 11.665L2.16731 11.3485L1.90625 11.143H2.24114L2.35209 10.8266L2.44458 11.143H2.77947L2.49995 11.3485L2.61541 11.665ZM3.84629 10.286L3.58522 10.0805L3.3057 10.286L3.41665 9.96957L3.13713 9.76408H3.47202L3.58297 9.44765L3.67546 9.76408H4.0124L3.75175 9.96957L3.84629 10.286ZM3.77226 7.15651L3.86475 7.49141L3.60368 7.28592L3.32416 7.49141L3.43511 7.15651L3.15559 6.96948H3.49048L3.60143 6.65305L3.69392 6.96948H4.02881L3.77226 7.15651ZM5.13254 11.665L4.85322 11.4595L4.59216 11.665L4.68465 11.3485L4.42358 11.1451H4.75848L4.85097 10.8286L4.96191 11.1451H5.29681L5.01729 11.3506L5.13254 11.665ZM5.1512 8.5168L5.0218 8.60929L5.13274 8.92572L4.85322 8.73869L4.59216 8.92572L4.68465 8.60929L4.5737 8.5168L4.42379 8.40585H4.75868L4.85117 8.08941L4.96212 8.40585H5.29701L5.1512 8.5168ZM5.01954 5.74065L5.13049 6.05709L4.85097 5.87006L4.5899 6.05709L4.68239 5.74065L4.42338 5.53517H4.75827L4.85076 5.21873L4.96171 5.53517H5.2966L5.01954 5.74065ZM6.36157 10.3805L6.08205 10.1935L5.82099 10.3805L5.91348 10.0641L5.65241 9.87708H5.9873L6.07979 9.54219L6.19074 9.87708H6.52563L6.24611 10.0641L6.36157 10.3805ZM6.28754 7.26746L6.38003 7.5839L6.11896 7.37841L5.83944 7.5839L5.95039 7.26746L5.67087 7.06197H6.00576L6.11671 6.74554L6.2092 7.06197H6.54409L6.28754 7.26746ZM6.306 4.43574L6.41694 4.75218L6.13742 4.54669L5.87636 4.75218L5.96885 4.43574L5.70778 4.23025H6.04268L6.13517 3.91382L6.24611 4.23025H6.58101L6.306 4.43574ZM7.64782 11.665L7.3683 11.4595L7.10724 11.665L7.19973 11.3485L6.93866 11.143H7.27355L7.36604 10.8266L7.47699 11.143H7.81394L7.53441 11.3485L7.64782 11.665ZM7.66628 8.5168L7.53687 8.60929L7.64782 8.92572L7.3683 8.73869L7.10724 8.92572L7.19973 8.60929L7.08878 8.5168L6.93887 8.40585H7.27376L7.36625 8.08941L7.4772 8.40585H7.81414L7.66628 8.5168ZM7.53482 5.74065L7.64577 6.05709L7.36625 5.87006L7.10519 6.05709L7.19768 5.74065L6.93661 5.53517H7.2715L7.36399 5.21873L7.47494 5.53517H7.81394L7.53482 5.74065ZM8.87665 10.3805L8.59713 10.1935L8.33606 10.3805L8.42855 10.0641L8.1677 9.87708H8.50259L8.59508 9.54219L8.70603 9.87708H9.04092L8.7614 10.0641L8.87665 10.3805ZM8.80262 7.26746L8.89511 7.5839L8.63425 7.37841L8.35473 7.5839L8.46567 7.26746L8.18615 7.06197H8.52104L8.63199 6.74554L8.72448 7.06197H9.05937L8.80262 7.26746ZM8.82128 4.43574L8.93223 4.75218L8.65271 4.54669L8.39164 4.75218L8.48413 4.43574L8.22307 4.23025H8.5395L8.65045 3.91382L8.7614 4.23025H9.09629L8.82128 4.43574ZM10.1631 11.665L9.88358 11.4595L9.62252 11.665L9.71501 11.3485L9.45415 11.143H9.78904L9.88153 10.8266L9.99248 11.143H10.3274L10.0479 11.3485L10.1631 11.665ZM10.1816 8.5168L10.0522 8.60929L10.1631 8.92572L9.88358 8.73869L9.62252 8.92572L9.71501 8.60929L9.60406 8.5168L9.45415 8.40585H9.78904L9.88153 8.08941L9.99248 8.40585H10.3274L10.1816 8.5168ZM10.0522 5.74065L10.1631 6.05709L9.88358 5.87006L9.62252 6.05709L9.71501 5.74065L9.45415 5.53517H9.78904L9.88153 5.21873L9.99248 5.53517H10.3274L10.0522 5.74065ZM10.0522 2.9438L10.1631 3.26023L9.88358 3.05475L9.62252 3.26023L9.71501 2.9438L9.45415 2.73831H9.78904L9.88153 2.42188L9.99248 2.73831H10.3274L10.0522 2.9438ZM7.3683 3.0568L7.64782 3.26229L7.53687 2.94585L7.57379 2.90894C7.42388 2.96451 7.29427 3.01988 7.14436 3.07751L7.08878 3.24608L7.3683 3.0568Z" fill="white"/>
  <path d="M7.37189 5.21875L7.27939 5.53519H6.9445L7.20557 5.74067L7.11308 6.05711L7.37414 5.87008L7.65366 6.05711L7.54272 5.74067L7.82224 5.53519H7.48734L7.37189 5.21875ZM7.37189 8.08738L7.27939 8.40382H6.9445L7.09441 8.51477L7.20536 8.60726L7.11287 8.92369L7.37394 8.73666L7.65346 8.92369L7.54251 8.60726L7.67191 8.51477L7.82183 8.40382H7.48693L7.37189 8.08738ZM7.48283 11.1451L7.37189 10.8287L7.27939 11.1451H6.9445L7.20557 11.3506L7.11308 11.667L7.37414 11.4615L7.65366 11.667L7.54272 11.3506L7.82224 11.1451H7.48283ZM4.85681 5.21875L4.76432 5.53519H4.42737L4.68844 5.74067L4.59595 6.05711L4.85701 5.87008L5.13653 6.05711L5.02354 5.74067L5.30306 5.53519H4.96816L4.85681 5.21875ZM4.85681 8.08738L4.76432 8.40382H4.42737L4.57729 8.51477L4.68823 8.60726L4.59574 8.92369L4.85681 8.73666L5.13633 8.92369L5.02538 8.60726L5.15479 8.51477L5.3047 8.40382H4.96981L4.85681 8.08738ZM4.96775 11.1451L4.85681 10.8287L4.76432 11.1451H4.42737L4.68844 11.3506L4.59595 11.667L4.85701 11.4615L5.13653 11.667L5.02559 11.3506L5.30511 11.1451H4.96775ZM2.36203 8.08738L2.2839 8.31133C2.30235 8.23729 2.34152 8.18192 2.36203 8.10584V8.08738Z" fill="white"/>
  <path d="M2.61706 8.92572L2.50611 8.60929L2.63552 8.5168L2.78543 8.40585H2.45054L2.35805 8.10787C2.33959 8.16345 2.30247 8.23728 2.28401 8.31336L2.2471 8.42431C2.22864 8.47988 2.21019 8.55371 2.17307 8.61134L2.08058 8.90932V8.92777L2.3601 8.72229L2.61706 8.92572ZM2.45054 11.1451L2.35805 10.8286L2.24505 11.1451H1.91016L2.17122 11.3506L2.07873 11.667L2.35825 11.4615L2.61932 11.667L2.50837 11.3506L2.78789 11.1451H2.45054ZM8.6359 6.74554L8.52495 7.06197H8.19006L8.46958 7.26746L8.35863 7.5839L8.63795 7.37841L8.89901 7.5839L8.80652 7.26746L9.06759 7.06197H8.7327L8.6359 6.74554ZM8.71178 9.87708L8.60083 9.54219L8.50834 9.87708H8.17345L8.43431 10.0641L8.34182 10.3805L8.60288 10.1935L8.8824 10.3805L8.77146 10.0641L9.05098 9.87708H8.71178ZM6.12062 6.74554L6.00967 7.06197H5.67478L5.9543 7.26746L5.84335 7.5839L6.12267 7.37841L6.38373 7.5839L6.29124 7.26746L6.55231 7.06197H6.21741L6.12062 6.74554ZM6.19465 9.87708L6.0837 9.54219L5.99121 9.87708H5.65632L5.91738 10.0641L5.82469 10.3805L6.08575 10.1935L6.36527 10.3805L6.25433 10.0641L6.53385 9.87708H6.19465ZM3.60554 6.65305L3.49459 6.96948H3.1597L3.43922 7.15651L3.32827 7.49141L3.60779 7.28592L3.86886 7.49141L3.77637 7.15651L4.03743 6.96948H3.70254L3.60554 6.65305ZM3.67937 9.76408L3.58688 9.44765L3.47593 9.76408H3.14104L3.42056 9.96957L3.30961 10.286L3.58913 10.0805L3.8502 10.286L3.75771 9.96957L4.01877 9.76408H3.67937ZM9.88523 5.21873L9.79274 5.53517H9.45785L9.71892 5.74065L9.62643 6.05709L9.88729 5.87006L10.1668 6.05709L10.0559 5.74065L10.3354 5.53517H10.0005L9.88523 5.21873ZM6.13907 3.91382L6.04658 4.23025H5.71169L5.97275 4.43574L5.88026 4.75218L6.14133 4.54669L6.42085 4.75218L6.3099 4.43574L6.58942 4.23025H6.25453L6.13907 3.91382ZM8.65641 3.91382L8.54546 4.23025H8.22697L8.48783 4.43574L8.39534 4.75218L8.65641 4.54669L8.93593 4.75218L8.82498 4.43574L9.1045 4.23025H8.76961L8.65641 3.91382ZM9.88523 2.42188L9.79274 2.74036H9.45785L9.71892 2.94585L9.62643 3.26229L9.88729 3.0568L10.1668 3.26229L10.0559 2.94585L10.3354 2.74036H10.0005L9.88523 2.42188ZM9.88523 8.08736L9.79274 8.4038H9.45785L9.60797 8.51475L9.71892 8.60724L9.62437 8.92572L9.88544 8.73869L10.165 8.92572L10.054 8.60929L10.1834 8.5168L10.3335 8.40585H9.99864L9.88523 8.08736ZM9.99618 11.1451L9.88523 10.8286L9.79274 11.1451H9.45785L9.71892 11.3506L9.62643 11.667L9.88729 11.4615L10.1668 11.667L10.0559 11.3506L10.3354 11.1451H9.99618Z" fill="white"/>
</svg>