<svg width="35" height="35" viewBox="0 0 35 35" fill="none" xmlns="http://www.w3.org/2000/svg">
<path fill-rule="evenodd" clip-rule="evenodd" d="M2.91602 11.6673C2.91602 8.44566 5.52769 5.83398 8.74935 5.83398H10.2077C11.0131 5.83398 11.666 6.4869 11.666 7.29232C11.666 8.09773 11.0131 8.75065 10.2077 8.75065H8.74935C7.13852 8.75065 5.83268 10.0565 5.83268 11.6673V13.1257C5.83268 13.9311 5.17976 14.584 4.37435 14.584C3.56893 14.584 2.91602 13.9311 2.91602 13.1257V11.6673ZM23.3327 7.29232C23.3327 6.4869 23.9856 5.83398 24.791 5.83398H26.2493C29.471 5.83398 32.0827 8.44566 32.0827 11.6673V13.1257C32.0827 13.9311 31.4298 14.584 30.6243 14.584C29.8189 14.584 29.166 13.9311 29.166 13.1257V11.6673C29.166 10.0565 27.8602 8.75065 26.2493 8.75065H24.791C23.9856 8.75065 23.3327 8.09773 23.3327 7.29232ZM11.666 13.1257C12.4714 13.1257 13.1243 13.7786 13.1243 14.584V20.4173C13.1243 21.2227 12.4714 21.8757 11.666 21.8757C10.8606 21.8757 10.2077 21.2227 10.2077 20.4173V14.584C10.2077 13.7786 10.8606 13.1257 11.666 13.1257ZM17.4993 13.1257C18.3048 13.1257 18.9577 13.7786 18.9577 14.584V17.5007C18.9577 18.3061 18.3048 18.959 17.4993 18.959C16.6939 18.959 16.041 18.3061 16.041 17.5007V14.584C16.041 13.7786 16.6939 13.1257 17.4993 13.1257ZM23.3327 13.1257C24.1381 13.1257 24.791 13.7786 24.791 14.584V20.4173C24.791 21.2227 24.1381 21.8757 23.3327 21.8757C22.5273 21.8757 21.8743 21.2227 21.8743 20.4173V14.584C21.8743 13.7786 22.5273 13.1257 23.3327 13.1257ZM4.37435 20.4173C5.17976 20.4173 5.83268 21.0702 5.83268 21.8757V23.334C5.83268 24.9448 7.13852 26.2507 8.74935 26.2507H10.2077C11.0131 26.2507 11.666 26.9036 11.666 27.709C11.666 28.5144 11.0131 29.1673 10.2077 29.1673H8.74935C5.52769 29.1673 2.91602 26.5556 2.91602 23.334V21.8757C2.91602 21.0702 3.56893 20.4173 4.37435 20.4173ZM30.6243 20.4173C31.4298 20.4173 32.0827 21.0702 32.0827 21.8757V23.334C32.0827 26.5556 29.471 29.1673 26.2493 29.1673H24.791C23.9856 29.1673 23.3327 28.5144 23.3327 27.709C23.3327 26.9036 23.9856 26.2507 24.791 26.2507H26.2493C27.8602 26.2507 29.166 24.9448 29.166 23.334V21.8757C29.166 21.0702 29.8189 20.4173 30.6243 20.4173Z" fill="url(#paint0_linear_575_755)"/>
<path fill-rule="evenodd" clip-rule="evenodd" d="M2.91602 11.6673C2.91602 8.44566 5.52769 5.83398 8.74935 5.83398H10.2077C11.0131 5.83398 11.666 6.4869 11.666 7.29232C11.666 8.09773 11.0131 8.75065 10.2077 8.75065H8.74935C7.13852 8.75065 5.83268 10.0565 5.83268 11.6673V13.1257C5.83268 13.9311 5.17976 14.584 4.37435 14.584C3.56893 14.584 2.91602 13.9311 2.91602 13.1257V11.6673ZM23.3327 7.29232C23.3327 6.4869 23.9856 5.83398 24.791 5.83398H26.2493C29.471 5.83398 32.0827 8.44566 32.0827 11.6673V13.1257C32.0827 13.9311 31.4298 14.584 30.6243 14.584C29.8189 14.584 29.166 13.9311 29.166 13.1257V11.6673C29.166 10.0565 27.8602 8.75065 26.2493 8.75065H24.791C23.9856 8.75065 23.3327 8.09773 23.3327 7.29232ZM11.666 13.1257C12.4714 13.1257 13.1243 13.7786 13.1243 14.584V20.4173C13.1243 21.2227 12.4714 21.8757 11.666 21.8757C10.8606 21.8757 10.2077 21.2227 10.2077 20.4173V14.584C10.2077 13.7786 10.8606 13.1257 11.666 13.1257ZM17.4993 13.1257C18.3048 13.1257 18.9577 13.7786 18.9577 14.584V17.5007C18.9577 18.3061 18.3048 18.959 17.4993 18.959C16.6939 18.959 16.041 18.3061 16.041 17.5007V14.584C16.041 13.7786 16.6939 13.1257 17.4993 13.1257ZM23.3327 13.1257C24.1381 13.1257 24.791 13.7786 24.791 14.584V20.4173C24.791 21.2227 24.1381 21.8757 23.3327 21.8757C22.5273 21.8757 21.8743 21.2227 21.8743 20.4173V14.584C21.8743 13.7786 22.5273 13.1257 23.3327 13.1257ZM4.37435 20.4173C5.17976 20.4173 5.83268 21.0702 5.83268 21.8757V23.334C5.83268 24.9448 7.13852 26.2507 8.74935 26.2507H10.2077C11.0131 26.2507 11.666 26.9036 11.666 27.709C11.666 28.5144 11.0131 29.1673 10.2077 29.1673H8.74935C5.52769 29.1673 2.91602 26.5556 2.91602 23.334V21.8757C2.91602 21.0702 3.56893 20.4173 4.37435 20.4173ZM30.6243 20.4173C31.4298 20.4173 32.0827 21.0702 32.0827 21.8757V23.334C32.0827 26.5556 29.471 29.1673 26.2493 29.1673H24.791C23.9856 29.1673 23.3327 28.5144 23.3327 27.709C23.3327 26.9036 23.9856 26.2507 24.791 26.2507H26.2493C27.8602 26.2507 29.166 24.9448 29.166 23.334V21.8757C29.166 21.0702 29.8189 20.4173 30.6243 20.4173Z" fill="#2F80ED"/>
<defs>
<linearGradient id="paint0_linear_575_755" x1="17.4993" y1="5.83398" x2="17.4993" y2="29.1673" gradientUnits="userSpaceOnUse">
<stop stop-color="#F8F8F8" stop-opacity="0.9"/>
<stop offset="1" stop-color="#F8F8F8" stop-opacity="0.3"/>
</linearGradient>
</defs>
</svg>
