<svg width="42" height="42" viewBox="0 0 42 42" fill="none" xmlns="http://www.w3.org/2000/svg">
<rect width="42" height="42" rx="21" fill="url(#paint0_linear_1523_2323)"/>
<rect width="42" height="42" rx="21" fill="url(#paint1_radial_1523_2323)"/>
<path d="M27.3663 21.4316C27.6047 21.1932 27.6047 20.8068 27.3663 20.5684L23.4818 16.6839C23.2435 16.4455 22.857 16.4455 22.6186 16.6839C22.3802 16.9223 22.3802 17.3087 22.6186 17.5471L26.0715 21L22.6186 24.4529C22.3802 24.6913 22.3802 25.0777 22.6186 25.3161C22.857 25.5545 23.2435 25.5545 23.4818 25.3161L27.3663 21.4316ZM15.0645 21V21.6104H26.9347V21V20.3896H15.0645V21Z" fill="white"/>
<defs>
<linearGradient id="paint0_linear_1523_2323" x1="7" y1="6.5" x2="29.5" y2="45" gradientUnits="userSpaceOnUse">
<stop stop-color="#2F80ED"/>
<stop offset="1" stop-color="#052F5A"/>
</linearGradient>
<radialGradient id="paint1_radial_1523_2323" cx="0" cy="0" r="1" gradientUnits="userSpaceOnUse" gradientTransform="translate(20.7239 -9.05487) rotate(90) scale(51.4023 32.295)">
<stop stop-color="#6BC0F9"/>
<stop offset="0.248721" stop-color="#55BBFF"/>
<stop offset="0.802885" stop-color="#236BF1"/>
<stop offset="1" stop-color="#236BF1"/>
</radialGradient>
</defs>
</svg>
