<svg xmlns="http://www.w3.org/2000/svg" width="24" height="24" viewBox="0 0 24 24" fill="none">
  <path d="M22.125 7.125H1.875C1.25475 7.125 0.75 7.62975 0.75 8.25V15.75C0.75 16.3702 1.25475 16.875 1.875 16.875H22.125C22.7453 16.875 23.25 16.3702 23.25 15.75V8.25C23.25 7.62975 22.7453 7.125 22.125 7.125ZM22.5 15.75C22.5 15.957 22.3316 16.125 22.125 16.125H1.875C1.66838 16.125 1.5 15.957 1.5 15.75V8.25C1.5 8.043 1.66838 7.875 1.875 7.875H22.125C22.3316 7.875 22.5 8.043 22.5 8.25V15.75Z" fill="#00254B"/>
  <path d="M20.625 9.375H3.375C3.168 9.375 3 9.54263 3 9.75V12C3 12.1177 3.0555 12.2291 3.15 12.3L4.5 13.3125V14.25C4.5 14.4574 4.668 14.625 4.875 14.625H19.125C19.332 14.625 19.5 14.4574 19.5 14.25V13.3125L20.85 12.3C20.9445 12.2295 21 12.1181 21 12V9.75C21 9.54263 20.832 9.375 20.625 9.375ZM20.25 11.8125L18.9 12.825C18.8055 12.8955 18.75 13.0069 18.75 13.125V13.875H5.25V13.125C5.25 13.0073 5.1945 12.8959 5.1 12.825L3.75 11.8125V10.125H20.25V11.8125Z" fill="#00254B"/>
  <path d="M7.875 11.625H8.625V12.375H7.875V11.625Z" fill="#00254B"/>
  <path d="M6.375 11.625H7.125V12.375H6.375V11.625Z" fill="#00254B"/>
  <path d="M9.375 11.625H10.125V12.375H9.375V11.625Z" fill="#00254B"/>
  <path d="M10.875 11.625H11.625V12.375H10.875V11.625Z" fill="#00254B"/>
  <path d="M15.375 11.625H16.125V12.375H15.375V11.625Z" fill="#00254B"/>
  <path d="M16.875 11.625H17.625V12.375H16.875V11.625Z" fill="#00254B"/>
  <path d="M13.875 11.625H14.625V12.375H13.875V11.625Z" fill="#00254B"/>
  <path d="M12.375 11.625H13.125V12.375H12.375V11.625Z" fill="#00254B"/>
</svg>