<svg xmlns="http://www.w3.org/2000/svg" width="23" height="19" viewBox="0 0 23 19" fill="none">
  <g clip-path="url(#clip0_1523_2370)">
    <path d="M14.0016 16.075L14.1852 17.1706C14.2468 17.234 15.6864 17.0791 15.9408 17.2218C16.0518 17.284 16.0927 17.3914 16.1073 17.5122C16.1323 17.7263 16.139 18.5462 16.0963 18.7365C16.0585 18.9048 15.8883 19.0104 15.7194 18.9994L6.81626 18.9768C6.69365 18.9268 6.61312 18.8292 6.59238 18.698C6.55639 18.4699 6.56066 17.7501 6.58872 17.5128C6.60275 17.3914 6.64363 17.2846 6.75526 17.2224C7.01024 17.0797 8.44987 17.2346 8.51087 17.1712L8.69448 16.0756H1.07667C0.60208 16.0756 -0.0103702 15.3924 0.00183003 14.9111L0 1.21148C0.0427007 0.538029 0.58134 0.0158603 1.25784 0H21.4834C22.1403 0.0420907 22.654 0.55328 22.6961 1.21026V14.8666C22.7333 15.3582 22.0915 16.075 21.6194 16.075H14.0016ZM21.9622 13.1524V1.16634C21.9622 0.973577 21.562 0.666132 21.3467 0.730793H1.30359C1.10168 0.683212 0.733233 0.991877 0.733233 1.16634V13.1524H21.9616H21.9622ZM21.9622 13.8832H0.733843V14.9105C0.733843 15.085 1.10229 15.3936 1.3042 15.346H21.3467C21.5627 15.4107 21.9622 15.1033 21.9622 14.9105V13.8832ZM9.24349 17.1706H13.4526L13.2433 16.0732L9.42649 16.0756L9.24288 17.1712L9.24349 17.1706ZM15.3741 17.9014H7.32196V18.2668H15.3741V17.9014Z" fill="#00254B"/>
    <path d="M10.8788 14.2585C11.021 14.2268 11.7231 14.228 11.8548 14.2695C12.1818 14.3719 12.1605 14.9179 11.781 14.9771C11.6267 15.0015 10.9783 15.0015 10.8434 14.9594C10.5256 14.8599 10.5421 14.3341 10.8782 14.2591L10.8788 14.2585Z" fill="#00254B"/>
  </g>
  <defs>
    <clipPath id="clip0_1523_2370">
      <rect width="22.6973" height="19" fill="white"/>
    </clipPath>
  </defs>
</svg>