<svg xmlns="http://www.w3.org/2000/svg" width="22" height="22" viewBox="0 0 22 22" fill="none">
  <g clip-path="url(#clip0_1523_2377)">
    <path d="M21.5423 6.41667C21.2893 6.41667 21.084 6.21133 21.084 5.95833V2.29167C21.084 1.53358 20.4671 0.916667 19.709 0.916667H16.0423C15.7893 0.916667 15.584 0.711333 15.584 0.458333C15.584 0.205333 15.7893 0 16.0423 0H19.709C20.9722 0 22.0007 1.02758 22.0007 2.29167V5.95833C22.0007 6.21133 21.7953 6.41667 21.5423 6.41667Z" fill="#00254B"/>
    <path d="M19.709 22.0007H16.0423C15.7893 22.0007 15.584 21.7953 15.584 21.5423C15.584 21.2893 15.7893 21.084 16.0423 21.084H19.709C20.4671 21.084 21.084 20.4671 21.084 19.709V16.0423C21.084 15.7893 21.2893 15.584 21.5423 15.584C21.7953 15.584 22.0007 15.7893 22.0007 16.0423V19.709C22.0007 20.9731 20.9722 22.0007 19.709 22.0007Z" fill="#00254B"/>
    <path d="M5.95833 22.0007H2.29167C1.0285 22.0007 0 20.9731 0 19.709V16.0423C0 15.7893 0.205333 15.584 0.458333 15.584C0.711333 15.584 0.916667 15.7893 0.916667 16.0423V19.709C0.916667 20.4671 1.53358 21.084 2.29167 21.084H5.95833C6.21133 21.084 6.41667 21.2893 6.41667 21.5423C6.41667 21.7953 6.21133 22.0007 5.95833 22.0007Z" fill="#00254B"/>
    <path d="M0.458333 6.41667C0.205333 6.41667 0 6.21133 0 5.95833V2.29167C0 1.02758 1.0285 0 2.29167 0H5.95833C6.21133 0 6.41667 0.205333 6.41667 0.458333C6.41667 0.711333 6.21133 0.916667 5.95833 0.916667H2.29167C1.53358 0.916667 0.916667 1.53358 0.916667 2.29167V5.95833C0.916667 6.21133 0.711333 6.41667 0.458333 6.41667Z" fill="#00254B"/>
    <path d="M16.0423 17.4173H5.95898C5.2009 17.4173 4.58398 16.8004 4.58398 16.0423V13.2923C4.58398 13.0393 4.78932 12.834 5.04232 12.834C5.29532 12.834 5.50065 13.0393 5.50065 13.2923V16.0423C5.50065 16.2944 5.70598 16.5007 5.95898 16.5007H16.0423C16.2953 16.5007 16.5007 16.2944 16.5007 16.0423V13.2923C16.5007 13.0393 16.706 12.834 16.959 12.834C17.212 12.834 17.4173 13.0393 17.4173 13.2923V16.0423C17.4173 16.8004 16.8004 17.4173 16.0423 17.4173Z" fill="#00254B"/>
    <path d="M16.959 10.084C16.706 10.084 16.5007 9.87865 16.5007 9.62565V5.95898C16.5007 5.7069 16.2953 5.50065 16.0423 5.50065H5.95898C5.70598 5.50065 5.50065 5.7069 5.50065 5.95898V9.62565C5.50065 9.87865 5.29532 10.084 5.04232 10.084C4.78932 10.084 4.58398 9.87865 4.58398 9.62565V5.95898C4.58398 5.2009 5.2009 4.58398 5.95898 4.58398H16.0423C16.8004 4.58398 17.4173 5.2009 17.4173 5.95898V9.62565C17.4173 9.87865 17.212 10.084 16.959 10.084Z" fill="#00254B"/>
    <path d="M18.7917 13.7507H3.20833C2.95533 13.7507 2.75 13.5453 2.75 13.2923C2.75 13.0393 2.95533 12.834 3.20833 12.834H18.7917C19.0447 12.834 19.25 13.0393 19.25 13.2923C19.25 13.5453 19.0447 13.7507 18.7917 13.7507Z" fill="#00254B"/>
  </g>
  <defs>
    <clipPath id="clip0_1523_2377">
      <rect width="22" height="22" fill="white"/>
    </clipPath>
  </defs>
</svg>