<svg xmlns="http://www.w3.org/2000/svg" width="27" height="27" viewBox="0 0 27 27" fill="none">
  <path d="M22.2493 13.4343C22.2493 12.2169 22.2604 11.0104 22.1921 9.79535C22.1237 8.38374 21.8017 7.13113 20.7695 6.09891C19.7352 5.0646 18.4847 4.74476 17.0731 4.67628C15.8556 4.6078 14.6492 4.61882 13.4341 4.61882C12.2166 4.61882 11.0102 4.6078 9.79511 4.67628C8.38349 4.74476 7.13088 5.0667 6.09867 6.09891C5.06436 7.13322 4.74452 8.38374 4.67603 9.79535C4.60755 11.0128 4.61857 12.2192 4.61857 13.4343C4.61857 14.6494 4.60755 15.8582 4.67603 17.0733C4.74452 18.4849 5.06646 19.7375 6.09867 20.7697C7.13298 21.8041 8.38349 22.1239 9.79511 22.1924C11.0126 22.2609 12.219 22.2496 13.4341 22.2496C14.6515 22.2496 15.858 22.2606 17.0731 22.1924C18.4844 22.1239 19.7373 21.802 20.7695 20.7697C21.8038 19.7354 22.1237 18.4849 22.1921 17.0733C22.2627 15.8582 22.2493 14.6518 22.2493 13.4343ZM13.432 17.9578C10.9289 17.9578 8.90852 15.9375 8.90852 13.4343C8.90852 10.9312 10.9286 8.91086 13.432 8.91086C15.9351 8.91086 17.9555 10.9312 17.9555 13.4343C17.9555 15.9377 15.9351 17.9578 13.432 17.9578ZM18.1407 9.78197C17.5561 9.78197 17.0843 9.30995 17.0843 8.72562C17.0843 8.1413 17.5564 7.66927 18.1407 7.66927C18.725 7.66927 19.197 8.1413 19.197 8.72562C19.1949 9.31231 18.725 9.78197 18.1407 9.78197Z" fill="#727273"/>
  <path d="M13.4333 10.6494C11.9002 10.6494 10.6494 11.9005 10.6494 13.4333C10.6494 14.9661 11.9005 16.2174 13.4333 16.2174C14.9661 16.2174 16.2174 14.9664 16.2174 13.4333C16.2174 11.9002 14.9664 10.6494 13.4333 10.6494Z" fill="#727273"/>
</svg>