<svg xmlns="http://www.w3.org/2000/svg" width="24" height="24" viewBox="0 0 24 24" fill="none">
  <path d="M21 17.25H17.25C17.1505 17.25 17.0552 17.2105 16.9848 17.1402C16.9145 17.0698 16.875 16.9745 16.875 16.875V15H7.125V16.875C7.125 16.9745 7.08549 17.0698 7.01517 17.1402C6.94484 17.2105 6.84946 17.25 6.75 17.25H3C2.50272 17.25 2.02581 17.0525 1.67417 16.7008C1.32254 16.3492 1.125 15.8723 1.125 15.375V8.625C1.125 8.12772 1.32254 7.65081 1.67417 7.29917C2.02581 6.94754 2.50272 6.75 3 6.75H21C21.4973 6.75 21.9742 6.94754 22.3258 7.29917C22.6775 7.65081 22.875 8.12772 22.875 8.625V15.375C22.875 15.8723 22.6775 16.3492 22.3258 16.7008C21.9742 17.0525 21.4973 17.25 21 17.25ZM17.625 16.5H21C21.2984 16.5 21.5845 16.3815 21.7955 16.1705C22.0065 15.9595 22.125 15.6734 22.125 15.375V8.625C22.125 8.32663 22.0065 8.04048 21.7955 7.8295C21.5845 7.61853 21.2984 7.5 21 7.5H3C2.70163 7.5 2.41548 7.61853 2.2045 7.8295C1.99353 8.04048 1.875 8.32663 1.875 8.625V15.375C1.875 15.6734 1.99353 15.9595 2.2045 16.1705C2.41548 16.3815 2.70163 16.5 3 16.5H6.375V14.625C6.375 14.5255 6.41451 14.4302 6.48483 14.3598C6.55516 14.2895 6.65054 14.25 6.75 14.25H17.25C17.3495 14.25 17.4448 14.2895 17.5152 14.3598C17.5855 14.4302 17.625 14.5255 17.625 14.625V16.5Z" fill="#00254B"/>
  <path d="M18.75 7.5H5.25C5.15054 7.5 5.05516 7.46049 4.98484 7.39017C4.91451 7.31984 4.875 7.22446 4.875 7.125V3.375C4.875 3.07663 4.99353 2.79048 5.2045 2.5795C5.41548 2.36853 5.70163 2.25 6 2.25H18C18.2984 2.25 18.5845 2.36853 18.7955 2.5795C19.0065 2.79048 19.125 3.07663 19.125 3.375V7.125C19.125 7.22446 19.0855 7.31984 19.0152 7.39017C18.9448 7.46049 18.8495 7.5 18.75 7.5ZM5.625 6.75H18.375V3.375C18.375 3.27554 18.3355 3.18016 18.2652 3.10984C18.1948 3.03951 18.0995 3 18 3H6C5.90054 3 5.80516 3.03951 5.73484 3.10984C5.66451 3.18016 5.625 3.27554 5.625 3.375V6.75Z" fill="#00254B"/>
  <path d="M18 10.875H15.75C15.4516 10.875 15.1655 10.7565 14.9545 10.5455C14.7435 10.3345 14.625 10.0484 14.625 9.75C14.625 9.45163 14.7435 9.16548 14.9545 8.9545C15.1655 8.74353 15.4516 8.625 15.75 8.625H18C18.2984 8.625 18.5845 8.74353 18.7955 8.9545C19.0065 9.16548 19.125 9.45163 19.125 9.75C19.125 10.0484 19.0065 10.3345 18.7955 10.5455C18.5845 10.7565 18.2984 10.875 18 10.875ZM15.75 9.375C15.6505 9.375 15.5552 9.41451 15.4848 9.48483C15.4145 9.55516 15.375 9.65054 15.375 9.75C15.375 9.84946 15.4145 9.94484 15.4848 10.0152C15.5552 10.0855 15.6505 10.125 15.75 10.125H18C18.0995 10.125 18.1948 10.0855 18.2652 10.0152C18.3355 9.94484 18.375 9.84946 18.375 9.75C18.375 9.65054 18.3355 9.55516 18.2652 9.48483C18.1948 9.41451 18.0995 9.375 18 9.375H15.75Z" fill="#00254B"/>
  <path d="M17.25 21H6.75C6.65054 21 6.55516 20.9605 6.48483 20.8902C6.41451 20.8198 6.375 20.7245 6.375 20.625V14.625C6.375 14.5255 6.41451 14.4302 6.48483 14.3598C6.55516 14.2895 6.65054 14.25 6.75 14.25H17.25C17.3495 14.25 17.4448 14.2895 17.5152 14.3598C17.5855 14.4302 17.625 14.5255 17.625 14.625V20.625C17.625 20.7245 17.5855 20.8198 17.5152 20.8902C17.4448 20.9605 17.3495 21 17.25 21ZM7.125 20.25H16.875V15H7.125V20.25Z" fill="#00254B"/>
  <path d="M6.75 17.25H5.25C5.15054 17.25 5.05516 17.2105 4.98484 17.1402C4.91451 17.0698 4.875 16.9745 4.875 16.875V15.375C4.875 15.0766 4.99353 14.7905 5.2045 14.5795C5.41548 14.3685 5.70163 14.25 6 14.25H6.75C6.84946 14.25 6.94484 14.2895 7.01517 14.3598C7.08549 14.4302 7.125 14.5255 7.125 14.625V16.875C7.125 16.9745 7.08549 17.0698 7.01517 17.1402C6.94484 17.2105 6.84946 17.25 6.75 17.25ZM5.625 16.5H6.375V15H6C5.90054 15 5.80516 15.0395 5.73484 15.1098C5.66451 15.1802 5.625 15.2755 5.625 15.375V16.5Z" fill="#00254B"/>
  <path d="M18.75 17.25H17.25C17.1505 17.25 17.0552 17.2105 16.9848 17.1402C16.9145 17.0698 16.875 16.9745 16.875 16.875V14.625C16.875 14.5255 16.9145 14.4302 16.9848 14.3598C17.0552 14.2895 17.1505 14.25 17.25 14.25H18C18.2984 14.25 18.5845 14.3685 18.7955 14.5795C19.0065 14.7905 19.125 15.0766 19.125 15.375V16.875C19.125 16.9745 19.0855 17.0698 19.0152 17.1402C18.9448 17.2105 18.8495 17.25 18.75 17.25ZM17.625 16.5H18.375V15.375C18.375 15.2755 18.3355 15.1802 18.2652 15.1098C18.1948 15.0395 18.0995 15 18 15H17.625V16.5Z" fill="#00254B"/>
</svg>