<svg xmlns="http://www.w3.org/2000/svg" width="27" height="27" viewBox="0 0 27 27" fill="none">
  <path d="M21.2501 11.9174C19.8035 11.9174 18.3969 11.4472 17.2396 10.5776V16.6439C17.2396 19.7416 14.8529 22.2502 11.9085 22.2502C8.96402 22.2502 6.57739 19.7416 6.57739 16.6439C6.57739 13.5462 8.96402 11.0373 11.9085 11.0373C12.2029 11.0373 12.4889 11.0631 12.7678 11.1113V14.3245C12.5009 14.2195 12.2168 14.166 11.931 14.166C10.617 14.166 9.55123 15.285 9.55123 16.6678C9.55123 18.0487 10.617 19.1696 11.931 19.1696C13.2432 19.1696 14.309 18.0487 14.309 16.6678V4.61816H17.2828C17.2828 6.93421 19.0686 8.81103 21.2711 8.81103V11.9155L21.2501 11.9174Z" fill="#727273"/>
</svg>